<svg xmlns="http://www.w3.org/2000/svg" width="23.031" height="293.06" viewBox="0 0 23.031 293.06">
  <metadata><?xpacket begin="﻿" id="W5M0MpCehiHzreSzNTczkc9d"?>
<x:xmpmeta xmlns:x="adobe:ns:meta/" x:xmptk="Adobe XMP Core 5.6-c138 79.159824, 2016/09/14-01:09:01        ">
   <rdf:RDF xmlns:rdf="http://www.w3.org/1999/02/22-rdf-syntax-ns#">
      <rdf:Description rdf:about=""/>
   </rdf:RDF>
</x:xmpmeta>
                                                                                                    
                                                                                                    
                                                                                                    
                                                                                                    
                                                                                                    
                                                                                                    
                                                                                                    
                                                                                                    
                                                                                                    
                                                                                                    
                                                                                                    
                                                                                                    
                                                                                                    
                                                                                                    
                                                                                                    
                                                                                                    
                                                                                                    
                                                                                                    
                                                                                                    
                                                                                                    
                           
<?xpacket end="w"?></metadata>
<defs>
    <style>
      .cls-1 {
        fill: #202b2f;
        fill-rule: evenodd;
      }
    </style>
  </defs>
  <path class="cls-1" d="M904.016,4731.51a11.52,11.52,0,1,1-11.52,11.52A11.521,11.521,0,0,1,904.016,4731.51Zm0,30a11.52,11.52,0,1,1-11.52,11.52A11.521,11.521,0,0,1,904.016,4761.51Zm0,30a11.52,11.52,0,1,1-11.52,11.52A11.521,11.521,0,0,1,904.016,4791.51Zm0,30a11.52,11.52,0,1,1-11.52,11.52A11.521,11.521,0,0,1,904.016,4821.51Zm0,30a11.52,11.52,0,1,1-11.52,11.52A11.521,11.521,0,0,1,904.016,4851.51Zm0,30a11.52,11.52,0,1,1-11.52,11.52A11.521,11.521,0,0,1,904.016,4881.51Zm0,30a11.52,11.52,0,1,1-11.52,11.52A11.521,11.521,0,0,1,904.016,4911.51Zm0,30a11.52,11.52,0,1,1-11.52,11.52A11.521,11.521,0,0,1,904.016,4941.51Zm0,30a11.52,11.52,0,1,1-11.52,11.52A11.521,11.521,0,0,1,904.016,4971.51Zm0,30a11.52,11.52,0,1,1-11.52,11.52A11.521,11.521,0,0,1,904.016,5001.51Z" transform="translate(-892.5 -4731.5)"/>
</svg>
